<svg xmlns="http://www.w3.org/2000/svg" version="1.1" xmlns:xlink="http://www.w3.org/1999/xlink" xmlns:svgjs="http://svgjs.com/svgjs" width="512" height="512" x="0" y="0" viewBox="0 0 512 512" style="enable-background:new 0 0 512 512" xml:space="preserve"><g><path d="m143.194 218.977 46.751-56.244a7.5 7.5 0 0 0-.974-10.562 7.501 7.501 0 0 0-10.562.974l-40.074 48.211-8.759-14.228a7.5 7.5 0 0 0-12.774 7.863l14.236 23.123c2.692 4.37 8.878 4.807 12.156.863zM116.804 293.991l14.236 23.123c2.69 4.37 8.876 4.807 12.154.862l46.751-56.244a7.5 7.5 0 0 0-11.536-9.588l-40.074 48.211-8.759-14.228a7.499 7.499 0 1 0-12.772 7.864zM116.804 393.658l14.236 23.123c2.69 4.37 8.876 4.807 12.154.862l46.751-56.244a7.5 7.5 0 0 0-11.536-9.588l-40.074 48.211-8.759-14.228a7.5 7.5 0 1 0-12.772 7.864z" fill="#2d6f6d" data-original="#000000"></path><path d="M448.5 423.405a7.5 7.5 0 0 0-7.5 7.5V485.5c0 6.341-5.159 11.5-11.5 11.5h-347c-6.341 0-11.5-5.159-11.5-11.5V156.809c0-4.143-3.358-7.5-7.5-7.5s-7.5 3.357-7.5 7.5V485.5c0 14.612 11.888 26.5 26.5 26.5h347c14.612 0 26.5-11.888 26.5-26.5v-54.595a7.5 7.5 0 0 0-7.5-7.5zM429.5 57.791h-36.688V26.8c0-14.777-12.022-26.8-26.8-26.8s-26.8 12.022-26.8 26.8v30.991H282.8V26.8C282.8 12.022 270.777 0 256 0s-26.8 12.022-26.8 26.8v30.991h-56.413V26.8c0-14.777-12.022-26.8-26.8-26.8-14.777 0-26.8 12.022-26.8 26.8v30.991H82.5c-14.612 0-26.5 11.888-26.5 26.5v37.518c0 4.143 3.358 7.5 7.5 7.5s7.5-3.357 7.5-7.5V84.291c0-6.341 5.159-11.5 11.5-11.5h36.687V84.7c0 14.777 12.022 26.8 26.8 26.8s26.8-12.022 26.8-26.8V72.791H229.2V84.7c0 14.777 12.022 26.8 26.8 26.8s26.8-12.022 26.8-26.8V72.791h56.413V84.7c0 14.777 12.022 26.8 26.8 26.8 14.777 0 26.8-12.022 26.8-26.8V72.791H429.5c6.341 0 11.5 5.159 11.5 11.5v311.614c0 4.143 3.358 7.5 7.5 7.5s7.5-3.357 7.5-7.5V84.291c0-14.612-11.888-26.5-26.5-26.5zM157.788 84.7c0 6.507-5.293 11.8-11.8 11.8-6.506 0-11.8-5.293-11.8-11.8V26.8c0-6.507 5.293-11.8 11.8-11.8s11.8 5.293 11.8 11.8zm110.012 0c0 6.507-5.293 11.8-11.8 11.8s-11.8-5.293-11.8-11.8V26.8c0-6.507 5.293-11.8 11.8-11.8s11.8 5.293 11.8 11.8zm110.013 0c0 6.507-5.293 11.8-11.8 11.8s-11.8-5.293-11.8-11.8V26.8c0-6.507 5.293-11.8 11.8-11.8 6.506 0 11.8 5.293 11.8 11.8z" fill="#2d6f6d" data-original="#000000"></path><path d="M221.739 225.183h158c12.958 0 23.5-10.542 23.5-23.5s-10.542-23.5-23.5-23.5h-158c-12.958 0-23.5 10.542-23.5 23.5s10.542 23.5 23.5 23.5zm0-32h158c4.687 0 8.5 3.813 8.5 8.5s-3.813 8.5-8.5 8.5h-158c-4.687 0-8.5-3.813-8.5-8.5s3.813-8.5 8.5-8.5zM221.739 324.396h158c12.958 0 23.5-10.542 23.5-23.5s-10.542-23.5-23.5-23.5h-158c-12.958 0-23.5 10.542-23.5 23.5s10.542 23.5 23.5 23.5zm0-32h158c4.687 0 8.5 3.813 8.5 8.5s-3.813 8.5-8.5 8.5h-158c-4.687 0-8.5-3.813-8.5-8.5s3.813-8.5 8.5-8.5zM221.739 423.608h158c12.958 0 23.5-10.542 23.5-23.5s-10.542-23.5-23.5-23.5h-158c-12.958 0-23.5 10.542-23.5 23.5s10.542 23.5 23.5 23.5zm0-32h158c4.687 0 8.5 3.813 8.5 8.5s-3.813 8.5-8.5 8.5h-158c-4.687 0-8.5-3.813-8.5-8.5s3.813-8.5 8.5-8.5z" fill="#2d6f6d" data-original="#000000"></path></g></svg>