<svg xmlns="http://www.w3.org/2000/svg" version="1.1" xmlns:xlink="http://www.w3.org/1999/xlink" xmlns:svgjs="http://svgjs.com/svgjs" width="512" height="512" x="0" y="0" viewBox="0 0 511 511.999" style="enable-background:new 0 0 512 512" xml:space="preserve"><g><path d="M447.324 317.766c6.453-19.918 9.73-40.692 9.73-61.86 0-21.09-3.253-41.789-9.667-61.644 14.105-5.297 26.93-13.778 37.578-25.055 18.402-19.48 28.113-44.965 27.348-71.75-1.586-55.3-47.86-98.992-103.168-97.414-26.79.766-51.672 11.918-70.075 31.402-9.293 9.84-16.363 21.211-20.992 33.508-19.86-6.41-40.558-9.664-61.656-9.664-21.11 0-41.824 3.262-61.695 9.68C180.395 27.043 143.715 0 100.832 0 45.508 0 .5 45.008.5 100.328c0 42.879 27.047 79.555 64.973 93.883-6.422 19.875-9.68 40.59-9.68 61.695 0 21.168 3.277 41.942 9.73 61.86C27.57 332.082.5 368.773.5 411.672c0 15.101 3.273 29.621 9.73 43.152a7.5 7.5 0 0 0 10 3.54 7.507 7.507 0 0 0 3.54-10c-5.489-11.5-8.27-23.844-8.27-36.692 0-47.047 38.281-85.324 85.332-85.324 47.055 0 85.336 38.277 85.336 85.324 0 47.05-38.281 85.328-85.336 85.328-21.46 0-41.973-7.996-57.754-22.516-3.05-2.804-7.797-2.605-10.598.442a7.498 7.498 0 0 0 .442 10.597C51.48 502.598 75.598 512 100.832 512c42.945 0 79.672-27.125 93.957-65.137 19.848 6.407 40.543 9.66 61.633 9.66 21.094 0 41.793-3.253 61.64-9.656C332.349 484.88 369.075 512 412.02 512c55.324 0 100.332-45.008 100.332-100.328 0-42.899-27.07-79.594-65.028-93.906zM349.977 41.742c15.648-16.57 36.816-26.054 59.601-26.707a87.263 87.263 0 0 1 2.477-.035c45.93 0 83.941 36.684 85.261 82.883.653 22.781-7.605 44.453-23.253 61.027-15.649 16.57-36.817 26.055-59.602 26.707a87.47 87.47 0 0 1-2.477.035c-45.93 0-83.941-36.683-85.261-82.882-.657-22.782 7.605-44.457 23.254-61.028zm-36.122 390.719c-18.48 6.008-37.765 9.062-57.433 9.062-19.66 0-38.945-3.054-57.426-9.062a100.472 100.472 0 0 0 2.172-20.79c0-55.32-45.012-100.323-100.336-100.323-7.168 0-14.16.761-20.906 2.195-6.059-18.547-9.133-37.902-9.133-57.637 0-19.672 3.059-38.965 9.078-57.465a100.19 100.19 0 0 0 20.961 2.211c17.188 0 34.145-4.422 49.047-12.785 3.61-2.027 4.894-6.597 2.867-10.21s-6.598-4.895-10.21-2.868c-12.665 7.106-27.087 10.863-41.704 10.863-47.055 0-85.332-38.277-85.332-85.328C15.5 53.277 53.781 15 100.832 15c47.055 0 85.336 38.277 85.336 85.328 0 19.684-6.863 38.887-19.324 54.078-2.63 3.2-2.16 7.926 1.043 10.555a7.501 7.501 0 0 0 10.554-1.043c14.653-17.863 22.727-40.45 22.727-63.594 0-7.183-.77-14.195-2.211-20.957 18.496-6.02 37.793-9.078 57.465-9.078 19.668 0 38.957 3.055 57.445 9.066a101.274 101.274 0 0 0-2.14 23.844c1.558 54.324 46.246 97.457 100.253 97.453a101.432 101.432 0 0 0 21-2.195c6.016 18.492 9.075 37.785 9.075 57.45 0 19.734-3.078 39.09-9.133 57.636a100.208 100.208 0 0 0-20.902-2.195c-55.325 0-100.332 45.004-100.332 100.324 0 7.129.75 14.082 2.167 20.789zM412.02 497c-47.055 0-85.332-38.277-85.332-85.324 0-47.051 38.277-85.328 85.332-85.328 47.054 0 85.332 38.277 85.332 85.328 0 47.047-38.278 85.324-85.332 85.324zm0 0" fill="#2d6f6d" data-original="#000000"></path><path d="M151.902 56.055a7.497 7.497 0 0 0-8.543.074 42.197 42.197 0 0 1-8.164 4.496c-10.304-8.063-25.238-7.969-35.468.926a27.838 27.838 0 0 0-9.415 17.926A40.887 40.887 0 0 1 62.84 62.492a7.513 7.513 0 0 0-6.863-3.152 7.5 7.5 0 0 0-6.13 4.418c-.214.484-5.261 12.015-4.617 26.129.493 10.8 4.356 24.722 18.446 35.472a45.535 45.535 0 0 1-15.774 2.18 7.502 7.502 0 0 0-3.941 14.05c11.766 6.536 24.371 9.81 36.687 9.81 11.832 0 23.395-3.024 33.684-9.075 12.902-7.59 22.277-19.21 27.367-33.402.16-.36.293-.734.399-1.121 2.617-7.707 3.988-16.149 3.988-25.102 0-.39-.012-.785-.027-1.176a42.665 42.665 0 0 0 8.914-17.492 7.51 7.51 0 0 0-3.07-7.976zm-21.047 24.304c.149.782.227 1.59.227 2.364 0 7.351-1.094 14.16-3.176 20.312a7.158 7.158 0 0 0-.285.875c-3.894 10.899-10.984 19.653-20.894 25.485-9.07 5.34-19.48 7.613-30.09 6.843a59.738 59.738 0 0 0 7.023-4.093 7.51 7.51 0 0 0 3.258-6.875 7.5 7.5 0 0 0-4.426-6.188C68.488 112.859 61 102.961 60.238 89.668a43.355 43.355 0 0 1 .274-7.73c10.316 8.62 23.531 13.324 37.324 12.968a7.5 7.5 0 0 0 7.309-7.496v-4.652a12.836 12.836 0 0 1 4.425-9.887c5.36-4.66 13.508-4.094 18.168 1.266a7.49 7.49 0 0 0 3.438 2.238 7.528 7.528 0 0 0-.32 3.984zM387.34 106.242h10.633v44.723a7.5 7.5 0 1 0 15 0v-44.723h11.582c4.14 0 7.5-3.36 7.5-7.5 0-4.14-3.36-7.5-7.5-7.5h-11.582V70.258c0-7.203 5.863-13.067 13.07-13.067h9.71c4.142 0 7.5-3.359 7.5-7.5a7.5 7.5 0 0 0-7.5-7.5h-9.71c-15.477 0-28.07 12.59-28.07 28.067v20.984H387.34c-4.14 0-7.5 3.36-7.5 7.5 0 4.14 3.36 7.5 7.5 7.5zM83.816 450.46c1.786 0 3.57-.46 5.16-1.378l51.051-29.488a10.345 10.345 0 0 0 5.16-8.938c0-3.672-1.976-7.097-5.16-8.933l-51.05-29.489a10.331 10.331 0 0 0-10.317 0 10.348 10.348 0 0 0-5.164 8.938v58.973c0 3.675 1.98 7.101 5.164 8.937a10.267 10.267 0 0 0 5.156 1.379zm4.68-61.179 37.016 21.38-37.016 21.378zM444.61 358.555h-65.18c-11.32 0-20.532 9.21-20.532 20.535v65.168c0 11.324 9.211 20.535 20.532 20.535h65.18c11.32 0 20.53-9.211 20.53-20.535V379.09c0-11.324-9.21-20.535-20.53-20.535zm5.53 85.703a5.537 5.537 0 0 1-5.53 5.535h-65.18a5.537 5.537 0 0 1-5.532-5.535V379.09a5.54 5.54 0 0 1 5.532-5.535h65.18a5.54 5.54 0 0 1 5.53 5.535zm0 0" fill="#2d6f6d" data-original="#000000"></path><path d="M412.02 389.004c-12.5 0-22.672 10.172-22.672 22.672s10.172 22.668 22.672 22.668 22.671-10.168 22.671-22.668-10.171-22.672-22.671-22.672zm0 30.34c-4.23 0-7.672-3.442-7.672-7.668 0-4.23 3.441-7.672 7.672-7.672s7.671 3.441 7.671 7.672c0 4.226-3.441 7.668-7.671 7.668zM310.703 178.094a7.5 7.5 0 0 0-7.5 7.5v3.363a223.778 223.778 0 0 1-33.11 16.012 223.69 223.69 0 0 1-28.156 8.746 8.649 8.649 0 0 0-5.289-1.813h-34.34c-8.296 0-15.042 6.75-15.042 15.043v39.387c0 8.297 6.746 15.043 15.043 15.043h6.863l2.601 50.008a7.498 7.498 0 0 0 7.88 7.097 7.5 7.5 0 0 0 7.1-7.878l-2.562-49.227h12.457c1.989 0 3.82-.68 5.286-1.809a224.852 224.852 0 0 1 18.058 5.16 7.5 7.5 0 1 0 4.723-14.238 240.123 240.123 0 0 0-19.395-5.539v-36.613a239.201 239.201 0 0 0 30.164-9.371A239.128 239.128 0 0 0 303.2 206.19v80.914a237.638 237.638 0 0 0-9.984-5.093 7.494 7.494 0 0 0-10.008 3.508 7.5 7.5 0 0 0 3.508 10.011 227.102 227.102 0 0 1 16.484 8.805v3.348a7.5 7.5 0 1 0 15 0v-122.09a7.496 7.496 0 0 0-7.496-7.5zm-80.379 88.277-28.058-.039.043-39.43h28.015zm0 0" fill="#2d6f6d" data-original="#000000"></path></g></svg>